<svg xmlns="http://www.w3.org/2000/svg" viewBox="0 0 658.65 156.24"><defs><style>.cls-1{fill:#085a87;}.cls-2{fill:#e58f05;}</style></defs><title>logo-tipo-2_1</title><g id="Camada_2" data-name="Camada 2"><g id="Camada_1-2" data-name="Camada 1"><path class="cls-1" d="M144.07,14.83A45.17,45.17,0,0,0,112,0l-1.27,0A44.74,44.74,0,0,0,87.45,6.59,47.89,47.89,0,0,0,70.83,23.86L68.37,28.2l3.74,3.18,5.74,4.89a10.53,10.53,0,0,0,15.4-1.81,21.65,21.65,0,0,1,17.51-9q.57,0,1.14,0c11.28.59,20.49,10.31,21,22.12a24.83,24.83,0,0,1-4,13.87c-2.74,4.42-6.7,7.76-10.22,11.45l-1.13,1.17L105,87.28l-14.29,15L78.81,114.67l-5.33,5.59,0,0L24.82,69.34a10.47,10.47,0,0,0-15.3,0L0,79.31l73.46,76.93L77,152.58,86,143.09,98.53,130l13.88-14.53,13.12-13.74L135.79,91c6.86-7.19,14.13-14.91,18-24.38a47.91,47.91,0,0,0,3.35-17.74A49.57,49.57,0,0,0,144.07,14.83Z"/><path class="cls-1" d="M267.1,22.41l-32.25,90.93H207.13L174.88,22.41h23.57L221,91.06l22.67-68.65Z"/><path class="cls-1" d="M344,82.51H293.91q.52,6.74,4.34,10.3a13.24,13.24,0,0,0,9.39,3.56q8.3,0,11.53-7h23.57a32.37,32.37,0,0,1-6.54,12.82,32.74,32.74,0,0,1-11.85,8.94,38,38,0,0,1-15.93,3.24,38.67,38.67,0,0,1-18.91-4.54,32.16,32.16,0,0,1-12.95-13,40,40,0,0,1-4.67-19.69,40.47,40.47,0,0,1,4.6-19.68,31.86,31.86,0,0,1,12.89-13,42,42,0,0,1,37.69-.13A31.7,31.7,0,0,1,339.83,57a38.17,38.17,0,0,1,4.6,19A56.2,56.2,0,0,1,344,82.51Zm-22.28-12.3a11.4,11.4,0,0,0-3.88-9.07,14.35,14.35,0,0,0-9.72-3.37A14.08,14.08,0,0,0,298.77,61a14.42,14.42,0,0,0-4.73,9.2Z"/><path class="cls-1" d="M420.39,48.51Q428,56.75,428,71.12v42.22H406V74.09q0-7.25-3.75-11.26a14.71,14.71,0,0,0-20.21,0q-3.76,4-3.76,11.26v39.25H356.08V41.07h22.15v9.58a23.49,23.49,0,0,1,9.07-7.58,28.9,28.9,0,0,1,12.82-2.78Q412.81,40.29,420.39,48.51Z"/><path class="cls-1" d="M443.19,57.52a31.34,31.34,0,0,1,11.46-13A30,30,0,0,1,470.84,40a28.4,28.4,0,0,1,13,3,23.76,23.76,0,0,1,9.26,8V17.49h22.15v95.85H493.12V103a22.57,22.57,0,0,1-8.87,8.29,27.84,27.84,0,0,1-13.41,3.11,29.66,29.66,0,0,1-16.19-4.6A31.75,31.75,0,0,1,443.19,96.7,43.59,43.59,0,0,1,439,77.07,43.12,43.12,0,0,1,443.19,57.52Zm45.33,6.6a15.57,15.57,0,0,0-22.41-.06q-4.59,4.72-4.59,13t4.59,13.15a15.42,15.42,0,0,0,22.41.07q4.61-4.8,4.6-13.09T488.52,64.12Z"/><path class="cls-1" d="M545.12,109.84a33.17,33.17,0,0,1-13.34-13,38.66,38.66,0,0,1-4.85-19.69,38.32,38.32,0,0,1,4.92-19.62,33.48,33.48,0,0,1,13.47-13,42.83,42.83,0,0,1,38.34,0,33.54,33.54,0,0,1,13.47,13,38.42,38.42,0,0,1,4.92,19.62,38,38,0,0,1-5,19.63,33.71,33.71,0,0,1-13.6,13,40.55,40.55,0,0,1-19.23,4.54A39.84,39.84,0,0,1,545.12,109.84ZM575,90.54q4.47-4.65,4.47-13.34t-4.34-13.34a14.71,14.71,0,0,0-21.43-.06q-4.28,4.59-4.28,13.4t4.21,13.34a13.64,13.64,0,0,0,10.56,4.67A14.42,14.42,0,0,0,575,90.54Z"/><path class="cls-1" d="M645.7,43.72a25,25,0,0,1,12.95-3.43V63.73h-6.09q-8.28,0-12.43,3.56T636,79.79v33.55H613.83V41.07H636v12A29.23,29.23,0,0,1,645.7,43.72Z"/><path class="cls-2" d="M296.25,155.17a8.29,8.29,0,0,1-3.44-2.74,7.07,7.07,0,0,1-1.29-4.05h3.91a5.1,5.1,0,0,0,1.63,3.33,5.84,5.84,0,0,0,4.17,1.35,6.08,6.08,0,0,0,4.12-1.31,4.26,4.26,0,0,0,1.52-3.37,3.81,3.81,0,0,0-.89-2.61,5.56,5.56,0,0,0-2.22-1.53,33.34,33.34,0,0,0-3.58-1.13,32.84,32.84,0,0,1-4.45-1.45,7.13,7.13,0,0,1-2.86-2.28,6.69,6.69,0,0,1-1.19-4.17,7.24,7.24,0,0,1,1.17-4.07,7.57,7.57,0,0,1,3.28-2.73,11.48,11.48,0,0,1,4.85-1,10.2,10.2,0,0,1,6.47,2,7.31,7.31,0,0,1,2.84,5.24h-4a4.35,4.35,0,0,0-1.69-2.84,6,6,0,0,0-3.95-1.23,5.7,5.7,0,0,0-3.74,1.19,4,4,0,0,0-1.45,3.32,3.59,3.59,0,0,0,.86,2.5,5.69,5.69,0,0,0,2.14,1.47,36.22,36.22,0,0,0,3.56,1.15,33.23,33.23,0,0,1,4.47,1.51,7.45,7.45,0,0,1,2.9,2.29,6.67,6.67,0,0,1,1.21,4.21,7.36,7.36,0,0,1-1.09,3.87,8,8,0,0,1-3.22,2.94,10.64,10.64,0,0,1-5,1.13A12,12,0,0,1,296.25,155.17Z"/><path class="cls-2" d="M347.39,138.82a9.86,9.86,0,0,1,3.76-4,10.35,10.35,0,0,1,5.34-1.41,9.8,9.8,0,0,1,5,1.25,8.3,8.3,0,0,1,3.19,3.14v-4h3.7v22.08h-3.7v-4.11a8.69,8.69,0,0,1-3.25,3.2,9.64,9.64,0,0,1-5,1.27,10,10,0,0,1-5.32-1.45,10.16,10.16,0,0,1-3.74-4.07,12.56,12.56,0,0,1-1.37-6A12.29,12.29,0,0,1,347.39,138.82Zm16.31,1.63a7.1,7.1,0,0,0-2.72-2.84,7.68,7.68,0,0,0-7.51,0,6.94,6.94,0,0,0-2.7,2.82,9,9,0,0,0-1,4.35,9.2,9.2,0,0,0,1,4.41,7.11,7.11,0,0,0,2.7,2.86,7.26,7.26,0,0,0,3.74,1,7.4,7.4,0,0,0,3.77-1,7.09,7.09,0,0,0,2.72-2.86,9.12,9.12,0,0,0,1-4.37A9,9,0,0,0,363.7,140.45Z"/><path class="cls-2" d="M425.61,133.8v22.08h-3.67v-3.27a7.12,7.12,0,0,1-2.92,2.64,9,9,0,0,1-4.13.95,9.91,9.91,0,0,1-4.63-1.07,7.74,7.74,0,0,1-3.24-3.2,10.58,10.58,0,0,1-1.19-5.2V133.8h3.62v12.45a7,7,0,0,0,1.66,5,5.89,5.89,0,0,0,4.51,1.76,6,6,0,0,0,4.63-1.82,7.42,7.42,0,0,0,1.69-5.27V133.8Zm-5.84-6.24-8.58,4.59v-2.74l8.58-5Z"/><path class="cls-2" d="M463.23,138.82a9.93,9.93,0,0,1,3.76-4,10.41,10.41,0,0,1,5.38-1.41,10,10,0,0,1,4.79,1.19,8.56,8.56,0,0,1,3.39,3.12V126.07h3.7v29.81h-3.7v-4.15a8.65,8.65,0,0,1-3.23,3.24,9.52,9.52,0,0,1-5,1.27,10,10,0,0,1-9.1-5.52,12.56,12.56,0,0,1-1.37-6A12.29,12.29,0,0,1,463.23,138.82Zm16.31,1.63a7.1,7.1,0,0,0-2.72-2.84,7.39,7.39,0,0,0-3.76-1,7.48,7.48,0,0,0-3.75,1,6.94,6.94,0,0,0-2.7,2.82,9,9,0,0,0-1,4.35,9.2,9.2,0,0,0,1,4.41,7.11,7.11,0,0,0,2.7,2.86,7.3,7.3,0,0,0,3.75,1,7.39,7.39,0,0,0,3.76-1,7.09,7.09,0,0,0,2.72-2.86,9.12,9.12,0,0,0,1-4.37A9,9,0,0,0,479.54,140.45Z"/><path class="cls-2" d="M541.89,146.21H524.25a6.94,6.94,0,0,0,7.17,6.93,6.78,6.78,0,0,0,4-1.11,5.89,5.89,0,0,0,2.23-3h4a9.47,9.47,0,0,1-3.55,5.18,10.74,10.74,0,0,1-6.6,2,11.14,11.14,0,0,1-5.62-1.41,10,10,0,0,1-3.89-4,12.42,12.42,0,0,1-1.41-6,12.65,12.65,0,0,1,1.37-6,9.69,9.69,0,0,1,3.85-4,11.41,11.41,0,0,1,5.7-1.39,11.12,11.12,0,0,1,5.56,1.37,9.43,9.43,0,0,1,3.72,3.77A11,11,0,0,1,542,144,21.8,21.8,0,0,1,541.89,146.21Zm-4.59-6.59a6.06,6.06,0,0,0-2.52-2.29,7.75,7.75,0,0,0-3.52-.79,6.78,6.78,0,0,0-4.73,1.77,7.22,7.22,0,0,0-2.24,4.92h13.94A6.76,6.76,0,0,0,537.3,139.62Z"/></g></g></svg>