<svg xmlns="http://www.w3.org/2000/svg" viewBox="0 0 483.77 138.75"><defs><style>.cls-1{fill:#085a87;}.cls-2{fill:#e58f05;}</style></defs><title>logo-tipo</title><g id="Camada_2" data-name="Camada 2"><g id="Camada_1-2" data-name="Camada 1"><path class="cls-1" d="M92.22,4.92,60,95.85H32.25L0,4.92H23.57L46.11,73.57,68.78,4.92Z"/><path class="cls-1" d="M169.16,65H119q.52,6.74,4.34,10.3a13.28,13.28,0,0,0,9.39,3.56q8.3,0,11.53-7h23.57a32.37,32.37,0,0,1-6.54,12.82,32.74,32.74,0,0,1-11.85,8.94,38,38,0,0,1-15.93,3.23,38.77,38.77,0,0,1-18.91-4.53A32.16,32.16,0,0,1,101.68,79.4,40,40,0,0,1,97,59.71,40.54,40.54,0,0,1,101.61,40a31.84,31.84,0,0,1,12.89-13,39,39,0,0,1,19-4.53,38.72,38.72,0,0,1,18.65,4.4A31.67,31.67,0,0,1,165,39.5a38.23,38.23,0,0,1,4.6,19A56.23,56.23,0,0,1,169.16,65Zm-22.28-12.3A11.41,11.41,0,0,0,143,43.65a14.31,14.31,0,0,0-9.71-3.37,14,14,0,0,0-9.39,3.24,14.37,14.37,0,0,0-4.73,9.2Z"/><path class="cls-1" d="M245.51,31q7.58,8.23,7.58,22.6V95.85h-22V56.6q0-7.24-3.76-11.27a14.72,14.72,0,0,0-20.2,0q-3.77,4-3.76,11.27V95.85H181.2V23.57h22.15v9.59a23.4,23.4,0,0,1,9.07-7.58,28.9,28.9,0,0,1,12.82-2.78Q237.93,22.8,245.51,31Z"/><path class="cls-1" d="M268.31,40a31.31,31.31,0,0,1,11.46-13A30,30,0,0,1,296,22.54a28.4,28.4,0,0,1,13,3,23.68,23.68,0,0,1,9.26,8V0h22.15V95.85H318.24V85.49a22.64,22.64,0,0,1-8.87,8.29A27.86,27.86,0,0,1,296,96.88a29.66,29.66,0,0,1-16.19-4.59A31.72,31.72,0,0,1,268.31,79.2a43.52,43.52,0,0,1-4.21-19.62A43.2,43.2,0,0,1,268.31,40Zm45.33,6.61a15.58,15.58,0,0,0-22.41-.07q-4.59,4.74-4.59,13t4.59,13.15a15.41,15.41,0,0,0,22.41.06q4.61-4.79,4.6-13.08C318.24,54.19,316.71,49.82,313.64,46.63Z"/><path class="cls-1" d="M370.24,92.35A33.24,33.24,0,0,1,356.9,79.4,38.69,38.69,0,0,1,352,59.71,38.3,38.3,0,0,1,357,40.09a33.35,33.35,0,0,1,13.47-13,42.83,42.83,0,0,1,38.34,0,33.47,33.47,0,0,1,13.47,13,38.39,38.39,0,0,1,4.92,19.62,38,38,0,0,1-5,19.62,33.67,33.67,0,0,1-13.6,13,40.66,40.66,0,0,1-19.23,4.53A40,40,0,0,1,370.24,92.35Zm29.92-19.3q4.47-4.67,4.47-13.34t-4.34-13.34a14.72,14.72,0,0,0-21.43-.07q-4.28,4.61-4.28,13.41t4.21,13.34a13.62,13.62,0,0,0,10.56,4.66A14.41,14.41,0,0,0,400.16,73.05Z"/><path class="cls-1" d="M470.82,26.23a25,25,0,0,1,12.95-3.43V46.24h-6.09q-8.3,0-12.43,3.56T461.1,62.3V95.85H439V23.57H461.1v12A29.23,29.23,0,0,1,470.82,26.23Z"/><path class="cls-2" d="M121.37,137.68a8.29,8.29,0,0,1-3.44-2.74,6.93,6.93,0,0,1-1.29-4.05h3.91a5.05,5.05,0,0,0,1.63,3.32,5.84,5.84,0,0,0,4.17,1.35,6,6,0,0,0,4.12-1.31,4.23,4.23,0,0,0,1.51-3.36,3.85,3.85,0,0,0-.88-2.62,5.67,5.67,0,0,0-2.22-1.53,33.66,33.66,0,0,0-3.58-1.12,31.34,31.34,0,0,1-4.45-1.46,7.11,7.11,0,0,1-2.86-2.27,6.62,6.62,0,0,1-1.19-4.17,7.22,7.22,0,0,1,1.17-4.07,7.66,7.66,0,0,1,3.28-2.74,11.63,11.63,0,0,1,4.85-1,10.22,10.22,0,0,1,6.47,2,7.31,7.31,0,0,1,2.84,5.24h-4a4.33,4.33,0,0,0-1.69-2.84,6,6,0,0,0-4-1.23,5.65,5.65,0,0,0-3.74,1.19,4,4,0,0,0-1.45,3.32,3.6,3.6,0,0,0,.86,2.5,5.69,5.69,0,0,0,2.14,1.47c.84.33,2,.72,3.56,1.15a33.23,33.23,0,0,1,4.47,1.51,7.36,7.36,0,0,1,2.9,2.29,6.67,6.67,0,0,1,1.21,4.21,7.36,7.36,0,0,1-1.09,3.87,8,8,0,0,1-3.22,2.94,10.64,10.64,0,0,1-5,1.13A12,12,0,0,1,121.37,137.68Z"/><path class="cls-2" d="M172.5,121.33a10,10,0,0,1,3.77-4,10.35,10.35,0,0,1,5.34-1.41,9.7,9.7,0,0,1,5,1.25,8.2,8.2,0,0,1,3.18,3.14v-4h3.71v22.07h-3.71v-4.1a8.66,8.66,0,0,1-3.24,3.2,9.74,9.74,0,0,1-5,1.27,10.07,10.07,0,0,1-5.32-1.45,10.32,10.32,0,0,1-3.75-4.07,12.71,12.71,0,0,1-1.37-6A12.4,12.4,0,0,1,172.5,121.33ZM188.82,123a7.1,7.1,0,0,0-2.72-2.84,7.4,7.4,0,0,0-3.77-1,7.32,7.32,0,0,0-3.74,1,6.94,6.94,0,0,0-2.7,2.82,9,9,0,0,0-1,4.35,9.2,9.2,0,0,0,1,4.41,7.11,7.11,0,0,0,2.7,2.86,7.23,7.23,0,0,0,3.74,1,7.39,7.39,0,0,0,3.77-1,7.09,7.09,0,0,0,2.72-2.86,9.12,9.12,0,0,0,1-4.37A9,9,0,0,0,188.82,123Z"/><path class="cls-2" d="M250.73,116.31v22.07h-3.67v-3.26a7.12,7.12,0,0,1-2.92,2.64,9,9,0,0,1-4.13,1,9.91,9.91,0,0,1-4.63-1.07,7.74,7.74,0,0,1-3.24-3.2,10.49,10.49,0,0,1-1.19-5.2V116.31h3.62v12.45a7,7,0,0,0,1.66,5,5.88,5.88,0,0,0,4.51,1.75,6,6,0,0,0,4.63-1.81,7.46,7.46,0,0,0,1.69-5.28V116.31Zm-5.84-6.24-8.58,4.59v-2.74l8.58-5Z"/><path class="cls-2" d="M288.35,121.33a9.86,9.86,0,0,1,3.76-4,10.41,10.41,0,0,1,5.38-1.41,9.86,9.86,0,0,1,4.79,1.19,8.56,8.56,0,0,1,3.39,3.12V108.58h3.7v29.8h-3.7v-4.15a8.6,8.6,0,0,1-3.23,3.25,9.61,9.61,0,0,1-5,1.27,10,10,0,0,1-9.1-5.52,12.59,12.59,0,0,1-1.37-6A12.29,12.29,0,0,1,288.35,121.33ZM304.66,123a7.1,7.1,0,0,0-2.72-2.84,7.68,7.68,0,0,0-7.51,0,6.94,6.94,0,0,0-2.7,2.82,9,9,0,0,0-1,4.35,9.2,9.2,0,0,0,1,4.41,7.11,7.11,0,0,0,2.7,2.86,7.26,7.26,0,0,0,3.74,1,7.39,7.39,0,0,0,3.77-1,7.09,7.09,0,0,0,2.72-2.86,9.12,9.12,0,0,0,1-4.37A9,9,0,0,0,304.66,123Z"/><path class="cls-2" d="M367,128.72H349.37a6.92,6.92,0,0,0,7.17,6.92,6.8,6.8,0,0,0,4-1.1,5.89,5.89,0,0,0,2.23-3h3.95a9.45,9.45,0,0,1-3.55,5.17,10.68,10.68,0,0,1-6.6,2,11.14,11.14,0,0,1-5.62-1.41,10,10,0,0,1-3.89-4,12.42,12.42,0,0,1-1.41-6,12.59,12.59,0,0,1,1.37-6,9.57,9.57,0,0,1,3.85-4,11.41,11.41,0,0,1,5.7-1.39,11.15,11.15,0,0,1,5.56,1.37,9.47,9.47,0,0,1,3.72,3.76,11.17,11.17,0,0,1,1.31,5.42A21.8,21.8,0,0,1,367,128.72Zm-4.59-6.59a6,6,0,0,0-2.52-2.29,7.75,7.75,0,0,0-3.52-.79,6.82,6.82,0,0,0-4.74,1.77,7.24,7.24,0,0,0-2.23,4.92h13.93A6.75,6.75,0,0,0,362.42,122.13Z"/></g></g></svg>