<svg xmlns="http://www.w3.org/2000/svg" viewBox="0 0 264.46 221.55"><defs><style>.cls-1{fill:#085a87;}.cls-2{fill:#e58f05;}</style></defs><title>logo-tipo-3</title><g id="Camada_2" data-name="Camada 2"><g id="Camada_1-2" data-name="Camada 1"><path class="cls-1" d="M197.46,12.78A41.58,41.58,0,0,0,168.54,0L167.4,0a41.92,41.92,0,0,0-36,20.56l-2.23,3.75,3.38,2.74,5.18,4.21a9.87,9.87,0,0,0,6.2,2.2,9.67,9.67,0,0,0,7.7-3.76,19.85,19.85,0,0,1,15.81-7.79l1,0A20.1,20.1,0,0,1,187.35,41a20.66,20.66,0,0,1-3.57,12c-2.47,3.81-6,6.68-9.22,9.86l-1,1L162.17,75.22l-12.9,12.89L138.56,98.82l-4.81,4.82,0,0-43.9-43.9a9.77,9.77,0,0,0-13.81,0l-8.59,8.59,66.3,66.3,3.15-3.16,8.18-8.17L156.36,112l12.52-12.52,11.85-11.84L190,78.39c6.19-6.2,12.75-12.85,16.27-21a39.49,39.49,0,0,0,3-15.29A41.6,41.6,0,0,0,197.46,12.78Z"/><path class="cls-1" d="M50.41,148.39,32.78,198.1H17.63L0,148.39H12.89l12.32,37.53L37.6,148.39Z"/><path class="cls-1" d="M92.47,181.24H65.07a8.24,8.24,0,0,0,2.37,5.63,7.25,7.25,0,0,0,5.14,1.95,6.36,6.36,0,0,0,6.3-3.82H91.77a17.79,17.79,0,0,1-10.06,11.89A20.83,20.83,0,0,1,73,198.66a21.11,21.11,0,0,1-10.34-2.48,17.61,17.61,0,0,1-7.08-7.08A21.81,21.81,0,0,1,53,178.34a22,22,0,0,1,2.52-10.76,17.33,17.33,0,0,1,7-7.08A21.36,21.36,0,0,1,73,158a21.09,21.09,0,0,1,10.2,2.41,17.24,17.24,0,0,1,7,6.86,20.84,20.84,0,0,1,2.52,10.41A29,29,0,0,1,92.47,181.24Zm-12.18-6.72a6.22,6.22,0,0,0-2.12-5,7.82,7.82,0,0,0-5.31-1.84,7.66,7.66,0,0,0-5.13,1.77,7.84,7.84,0,0,0-2.59,5Z"/><path class="cls-1" d="M134.21,162.66q4.15,4.5,4.15,12.35V198.1h-12V176.64a8.71,8.71,0,0,0-2-6.16,8.06,8.06,0,0,0-11,0,8.66,8.66,0,0,0-2,6.16V198.1H99.06V158.59h12.11v5.24a12.71,12.71,0,0,1,5-4.15,15.85,15.85,0,0,1,7-1.52Q130.08,158.16,134.21,162.66Z"/><path class="cls-1" d="M146.68,167.58a17.12,17.12,0,0,1,6.26-7.08,16.39,16.39,0,0,1,8.85-2.48,15.5,15.5,0,0,1,7.12,1.63A12.92,12.92,0,0,1,174,164V145.7h12.11v52.4H174v-5.67a12.28,12.28,0,0,1-4.85,4.53,15.12,15.12,0,0,1-7.33,1.7,16.24,16.24,0,0,1-8.85-2.51,17.39,17.39,0,0,1-6.26-7.15,26,26,0,0,1,0-21.42Zm24.78,3.61a8.51,8.51,0,0,0-12.25,0,9.78,9.78,0,0,0-2.52,7.12,10,10,0,0,0,2.52,7.19,8.44,8.44,0,0,0,12.25,0,11.44,11.44,0,0,0,0-14.3Z"/><path class="cls-1" d="M202.4,196.18a18.12,18.12,0,0,1-7.29-7.08,22.92,22.92,0,0,1,0-21.49,18.27,18.27,0,0,1,7.37-7.11,23.36,23.36,0,0,1,21,0,18.27,18.27,0,0,1,7.37,7.11,21.06,21.06,0,0,1,2.69,10.73,20.75,20.75,0,0,1-2.73,10.73,18.35,18.35,0,0,1-7.43,7.11,22.16,22.16,0,0,1-10.52,2.48A21.7,21.7,0,0,1,202.4,196.18Zm16.36-10.55c1.62-1.7,2.44-4.13,2.44-7.29s-.79-5.59-2.37-7.29a8.05,8.05,0,0,0-11.72,0q-2.34,2.52-2.34,7.33t2.3,7.29a7.46,7.46,0,0,0,5.77,2.55A7.89,7.89,0,0,0,218.76,185.63Z"/><path class="cls-1" d="M257.38,160a13.68,13.68,0,0,1,7.08-1.88V171h-3.33q-4.53,0-6.79,1.94c-1.52,1.3-2.27,3.58-2.27,6.84V198.1H240V158.59h12.11v6.58A16,16,0,0,1,257.38,160Z"/><path class="cls-2" d="M66.35,221a4.55,4.55,0,0,1-1.88-1.49,3.86,3.86,0,0,1-.71-2.22H65.9a2.8,2.8,0,0,0,.89,1.82,3.21,3.21,0,0,0,2.28.74,3.33,3.33,0,0,0,2.26-.72,2.32,2.32,0,0,0,.82-1.84,2.11,2.11,0,0,0-.48-1.43,3.25,3.25,0,0,0-1.21-.84,20,20,0,0,0-2-.61,18.55,18.55,0,0,1-2.44-.79,3.91,3.91,0,0,1-1.56-1.25,3.66,3.66,0,0,1-.65-2.28,3.91,3.91,0,0,1,.64-2.22,4.08,4.08,0,0,1,1.79-1.5,6.38,6.38,0,0,1,2.66-.53,5.54,5.54,0,0,1,3.53,1.08A4,4,0,0,1,74,209.74h-2.2a2.38,2.38,0,0,0-.92-1.55,3.3,3.3,0,0,0-2.16-.67,3.15,3.15,0,0,0-2,.65A2.21,2.21,0,0,0,65.9,210a2,2,0,0,0,.47,1.36,3.23,3.23,0,0,0,1.17.81,20.3,20.3,0,0,0,1.95.62,18.86,18.86,0,0,1,2.44.83,4.08,4.08,0,0,1,1.59,1.25,3.68,3.68,0,0,1,.66,2.3,4,4,0,0,1-.6,2.12,4.31,4.31,0,0,1-1.76,1.61,5.81,5.81,0,0,1-2.75.61A6.57,6.57,0,0,1,66.35,221Z"/><path class="cls-2" d="M94.3,212a5.52,5.52,0,0,1,2.06-2.17,5.69,5.69,0,0,1,2.92-.77,5.3,5.3,0,0,1,2.75.69,4.47,4.47,0,0,1,1.74,1.71v-2.2h2v12.07h-2V219.1a4.72,4.72,0,0,1-1.77,1.75,5.25,5.25,0,0,1-2.74.7,5.49,5.49,0,0,1-5-3,6.9,6.9,0,0,1-.75-3.26A6.81,6.81,0,0,1,94.3,212Zm8.92.9a3.87,3.87,0,0,0-1.49-1.56,4.2,4.2,0,0,0-4.1,0,3.86,3.86,0,0,0-1.48,1.54,5,5,0,0,0-.55,2.38,5.07,5.07,0,0,0,.55,2.41,3.89,3.89,0,0,0,3.53,2.11,4,4,0,0,0,2-.54,3.89,3.89,0,0,0,1.49-1.57,4.93,4.93,0,0,0,.55-2.39A4.83,4.83,0,0,0,103.22,212.92Z"/><path class="cls-2" d="M137.06,209.28v12.07h-2v-1.79a3.88,3.88,0,0,1-1.6,1.45,5,5,0,0,1-2.25.51,5.43,5.43,0,0,1-2.54-.58,4.26,4.26,0,0,1-1.77-1.75,5.79,5.79,0,0,1-.65-2.84v-7.07h2v6.81a3.83,3.83,0,0,0,.91,2.74,3.21,3.21,0,0,0,2.46,1,3.33,3.33,0,0,0,2.54-1,4.1,4.1,0,0,0,.92-2.88v-6.63Zm-3.19-3.41-4.69,2.51v-1.5l4.69-2.75Z"/><path class="cls-2" d="M157.63,212a5.45,5.45,0,0,1,2.06-2.17,5.71,5.71,0,0,1,2.94-.77,5.5,5.5,0,0,1,2.62.65,4.79,4.79,0,0,1,1.85,1.71v-6.39h2v16.3h-2v-2.27a4.74,4.74,0,0,1-1.76,1.77,5.18,5.18,0,0,1-2.73.7,5.52,5.52,0,0,1-5-3,6.9,6.9,0,0,1-.75-3.26A6.81,6.81,0,0,1,157.63,212Zm8.92.9a3.93,3.93,0,0,0-1.49-1.56,4,4,0,0,0-2.06-.54,4.09,4.09,0,0,0-2.05.53,3.9,3.9,0,0,0-1.47,1.54,4.89,4.89,0,0,0-.55,2.38,5,5,0,0,0,.55,2.41,3.86,3.86,0,0,0,3.52,2.11,4,4,0,0,0,2.06-.54,4,4,0,0,0,1.49-1.57,5,5,0,0,0,.55-2.39A4.94,4.94,0,0,0,166.55,212.92Z"/><path class="cls-2" d="M200.63,216.06H191a3.79,3.79,0,0,0,3.92,3.79,3.75,3.75,0,0,0,2.17-.6,3.28,3.28,0,0,0,1.22-1.62h2.16a5.23,5.23,0,0,1-1.94,2.83,5.89,5.89,0,0,1-3.61,1.09,6.11,6.11,0,0,1-3.07-.77,5.44,5.44,0,0,1-2.13-2.2,6.8,6.8,0,0,1-.77-3.29,6.9,6.9,0,0,1,.75-3.28,5.29,5.29,0,0,1,2.1-2.17,6.32,6.32,0,0,1,3.12-.76,6.06,6.06,0,0,1,3,.75,5.16,5.16,0,0,1,2,2.06,6,6,0,0,1,.72,3A10.29,10.29,0,0,1,200.63,216.06Zm-2.51-3.6a3.24,3.24,0,0,0-1.37-1.25,4.27,4.27,0,0,0-1.93-.43,3.7,3.7,0,0,0-2.59,1,3.92,3.92,0,0,0-1.22,2.68h7.62A3.68,3.68,0,0,0,198.12,212.46Z"/></g></g></svg>