<svg xmlns="http://www.w3.org/2000/svg" viewBox="0 0 176.84 175.79"><defs><style>.cls-1{fill:#085a87;}</style></defs><title>simbolo</title><g id="Camada_2" data-name="Camada 2"><g id="Camada_1-2" data-name="Camada 1"><path class="cls-1" d="M162.1,16.68A50.81,50.81,0,0,0,126.05,0l-1.43,0A50.31,50.31,0,0,0,98.4,7.41,54,54,0,0,0,79.69,26.85l-2.77,4.88,4.22,3.58,6.45,5.5a11.84,11.84,0,0,0,17.33-2,24.37,24.37,0,0,1,19.7-10.16q.64,0,1.29,0c12.68.67,23.05,11.61,23.59,24.9a27.79,27.79,0,0,1-4.45,15.6c-3.08,5-7.53,8.73-11.5,12.88l-1.26,1.33L118.1,98.2,102,115,88.68,129l-6,6.29,0,0L27.92,78a11.79,11.79,0,0,0-17.21,0L0,89.24l82.65,86.55,3.93-4.11L96.78,161l14.09-14.76,15.61-16.35,14.76-15.46,11.55-12.09c7.72-8.09,15.9-16.78,20.28-27.43a53.66,53.66,0,0,0,3.77-20A55.76,55.76,0,0,0,162.1,16.68Z"/></g></g></svg>